HIERARCHY
ROOT Hips
{
	OFFSET 0.000000 103.266502 0.000000
	CHANNELS 6 Xposition Yposition Zposition Xrotation Yrotation Zrotation 
	JOINT Spine
	{
		OFFSET -0.002400 12.777504 0.315300
		CHANNELS 3 Xrotation Yrotation Zrotation
		JOINT Spine1
		{
			OFFSET -0.002067 5.816869 0.032633
			CHANNELS 3 Xrotation Yrotation Zrotation
			JOINT Spine1_split
			{
				OFFSET -0.002067 5.816869 0.032633
				CHANNELS 3 Xrotation Yrotation Zrotation
				JOINT Spine2
				{
					OFFSET -0.002067 5.816869 0.032633
					CHANNELS 3 Xrotation Yrotation Zrotation
					JOINT Neck
					{
						OFFSET -0.003700 21.199493 -0.826900
						CHANNELS 3 Xrotation Yrotation Zrotation
						JOINT Head
						{
							OFFSET 0.000000 20.442200 4.834800
							CHANNELS 3 Xrotation Yrotation Zrotation
							JOINT HeadTop_End
							{
								OFFSET 0.000000 34.668396 4.968400
								CHANNELS 3 Xrotation Yrotation Zrotation
								End Site
								{
									OFFSET 0.000000 0.000000 0.000000
								}
							}
						}
					}
					JOINT LeftShoulder
					{
						OFFSET 3.288150 8.794197 -1.372250
						CHANNELS 3 Xrotation Yrotation Zrotation
						JOINT LeftShoulder_split
						{
							OFFSET 3.288150 8.794197 -1.372250
							CHANNELS 3 Xrotation Yrotation Zrotation
							JOINT LeftArm
							{
								OFFSET 11.953299 -2.279007 -0.146200
								CHANNELS 3 Xrotation Yrotation Zrotation
								JOINT LeftForeArm
								{
									OFFSET 18.448900 0.000000 0.000000
									CHANNELS 3 Xrotation Yrotation Zrotation
									JOINT LeftHand
									{
										OFFSET 29.527798 0.000000 0.000000
										CHANNELS 3 Xrotation Yrotation Zrotation
										JOINT LeftHandThumb1
										{
											OFFSET 10.739754 -2.369614 9.225399
											CHANNELS 3 Xrotation Yrotation Zrotation
											JOINT LeftHandThumb2
											{
												OFFSET 4.926170 -2.844131 2.844125
												CHANNELS 3 Xrotation Yrotation Zrotation
												JOINT LeftHandThumb3
												{
													OFFSET 4.614891 -2.664413 2.664409
													CHANNELS 3 Xrotation Yrotation Zrotation
													JOINT LeftHandThumb4
													{
														OFFSET 4.432465 -2.559082 2.559083
														CHANNELS 3 Xrotation Yrotation Zrotation
														End Site
														{
															OFFSET 0.000000 0.000000 0.000000
														}
													}
												}
											}
										}
										JOINT LeftHandIndex1
										{
											OFFSET 26.467674 0.187653 6.405298
											CHANNELS 3 Xrotation Yrotation Zrotation
											JOINT LeftHandIndex2
											{
												OFFSET 8.792900 0.000000 0.000000
												CHANNELS 3 Xrotation Yrotation Zrotation
												JOINT LeftHandIndex3
												{
													OFFSET 10.075203 0.000000 0.000000
													CHANNELS 3 Xrotation Yrotation Zrotation
													End Site
													{
														OFFSET 0.000000 0.000000 0.000000
													}
												}
											}
										}
										JOINT LeftHandMiddle1
										{
											OFFSET 25.764404 0.000000 0.000000
											CHANNELS 3 Xrotation Yrotation Zrotation
											JOINT LeftHandMiddle2
											{
												OFFSET 9.393974 0.000000 0.000000
												CHANNELS 3 Xrotation Yrotation Zrotation
												JOINT LeftHandMiddle3
												{
													OFFSET 10.771950 0.000000 0.000000
													CHANNELS 3 Xrotation Yrotation Zrotation
													End Site
													{
														OFFSET 0.000000 0.000000 0.000000
													}
												}
											}
										}
										JOINT LeftHandRing1
										{
											OFFSET 24.660927 0.144547 -6.225808
											CHANNELS 3 Xrotation Yrotation Zrotation
											JOINT LeftHandRing2
											{
												OFFSET 9.393799 0.000000 0.000000
												CHANNELS 3 Xrotation Yrotation Zrotation
												JOINT LeftHandRing3
												{
													OFFSET 9.928497 0.000000 0.000000
													CHANNELS 3 Xrotation Yrotation Zrotation
													End Site
													{
														OFFSET 0.000000 0.000000 0.000000
													}
												}
											}
										}
										JOINT LeftHandPinky1
										{
											OFFSET 23.655350 0.125290 -12.815412
											CHANNELS 3 Xrotation Yrotation Zrotation
											JOINT LeftHandPinky2
											{
												OFFSET 8.425102 0.000000 0.000000
												CHANNELS 3 Xrotation Yrotation Zrotation
												JOINT LeftHandPinky3
												{
													OFFSET 8.147003 0.000000 0.000000
													CHANNELS 3 Xrotation Yrotation Zrotation
													End Site
													{
														OFFSET 0.000000 0.000000 0.000000
													}
												}
											}
										}
									}
								}
							}
						}
					}
					JOINT RightShoulder
					{
						OFFSET -3.249400 8.794197 -1.372250
						CHANNELS 3 Xrotation Yrotation Zrotation
						JOINT RightShoulder_split
						{
							OFFSET -3.249400 8.794197 -1.372250
							CHANNELS 3 Xrotation Yrotation Zrotation
							JOINT RightArm
							{
								OFFSET -11.953299 -2.279007 -0.146200
								CHANNELS 3 Xrotation Yrotation Zrotation
								JOINT RightForeArm
								{
									OFFSET -18.448900 0.000000 0.000000
									CHANNELS 3 Xrotation Yrotation Zrotation
									JOINT RightHand
									{
										OFFSET -29.527802 0.000000 0.000000
										CHANNELS 3 Xrotation Yrotation Zrotation
										JOINT RightHandThumb1
										{
											OFFSET -10.739754 -2.369614 9.225399
											CHANNELS 3 Xrotation Yrotation Zrotation
											JOINT RightHandThumb2
											{
												OFFSET -4.926170 -2.844131 2.844125
												CHANNELS 3 Xrotation Yrotation Zrotation
												JOINT RightHandThumb3
												{
													OFFSET -4.614891 -2.664413 2.664409
													CHANNELS 3 Xrotation Yrotation Zrotation
													JOINT RightHandThumb4
													{
														OFFSET -4.432465 -2.559082 2.559083
														CHANNELS 3 Xrotation Yrotation Zrotation
														End Site
														{
															OFFSET 0.000000 0.000000 0.000000
														}
													}
												}
											}
										}
										JOINT RightHandIndex1
										{
											OFFSET -26.467674 0.187653 6.405298
											CHANNELS 3 Xrotation Yrotation Zrotation
											JOINT RightHandIndex2
											{
												OFFSET -8.792900 0.000000 0.000000
												CHANNELS 3 Xrotation Yrotation Zrotation
												JOINT RightHandIndex3
												{
													OFFSET -10.075203 0.000000 0.000000
													CHANNELS 3 Xrotation Yrotation Zrotation
													End Site
													{
														OFFSET 0.000000 0.000000 0.000000
													}
												}
											}
										}
										JOINT RightHandMiddle1
										{
											OFFSET -25.764404 0.000000 0.000000
											CHANNELS 3 Xrotation Yrotation Zrotation
											JOINT RightHandMiddle2
											{
												OFFSET -9.393974 0.000000 0.000000
												CHANNELS 3 Xrotation Yrotation Zrotation
												JOINT RightHandMiddle3
												{
													OFFSET -10.771950 0.000000 0.000000
													CHANNELS 3 Xrotation Yrotation Zrotation
													End Site
													{
														OFFSET 0.000000 0.000000 0.000000
													}
												}
											}
										}
										JOINT RightHandRing1
										{
											OFFSET -24.660927 0.144547 -6.225808
											CHANNELS 3 Xrotation Yrotation Zrotation
											JOINT RightHandRing2
											{
												OFFSET -9.393799 0.000000 0.000000
												CHANNELS 3 Xrotation Yrotation Zrotation
												JOINT RightHandRing3
												{
													OFFSET -9.928497 0.000000 0.000000
													CHANNELS 3 Xrotation Yrotation Zrotation
													End Site
													{
														OFFSET 0.000000 0.000000 0.000000
													}
												}
											}
										}
										JOINT RightHandPinky1
										{
											OFFSET -23.655350 0.125290 -12.815412
											CHANNELS 3 Xrotation Yrotation Zrotation
											JOINT RightHandPinky2
											{
												OFFSET -8.425102 0.000000 0.000000
												CHANNELS 3 Xrotation Yrotation Zrotation
												JOINT RightHandPinky3
												{
													OFFSET -8.147003 0.000000 0.000000
													CHANNELS 3 Xrotation Yrotation Zrotation
													End Site
													{
														OFFSET 0.000000 0.000000 0.000000
													}
												}
											}
										}
									}
								}
							}
						}
					}
				}
			}
		}
	}
	JOINT LeftUpLeg
	{
		OFFSET 11.394100 -6.187798 -0.413800
		CHANNELS 3 Xrotation Yrotation Zrotation
		JOINT LeftLeg
		{
			OFFSET 0.430247 -32.302673 3.732800
			CHANNELS 3 Xrotation Yrotation Zrotation
			JOINT LeftFoot
			{
				OFFSET -0.430247 -48.264931 -6.423300
				CHANNELS 3 Xrotation Yrotation Zrotation
				JOINT LeftToeBase
				{
					OFFSET 4.230900 -16.068199 23.438400
					CHANNELS 3 Xrotation Yrotation Zrotation
					JOINT LeftToe_End
					{
						OFFSET 4.510700 0.695400 19.974600
						CHANNELS 3 Xrotation Yrotation Zrotation
						End Site
						{
							OFFSET 0.000000 0.000000 0.000000
						}
					}
				}
			}
		}
	}
	JOINT RightUpLeg
	{
		OFFSET -11.333700 -6.187798 -0.413800
		CHANNELS 3 Xrotation Yrotation Zrotation
		JOINT RightLeg
		{
			OFFSET -0.430392 -32.302628 3.733000
			CHANNELS 3 Xrotation Yrotation Zrotation
			JOINT RightFoot
			{
				OFFSET 0.430392 -48.264973 -6.423500
				CHANNELS 3 Xrotation Yrotation Zrotation
				JOINT RightToeBase
				{
					OFFSET -4.230900 -16.068199 23.438400
					CHANNELS 3 Xrotation Yrotation Zrotation
					JOINT RightToe_End
					{
						OFFSET -4.510700 0.695400 19.974600
						CHANNELS 3 Xrotation Yrotation Zrotation
						End Site
						{
							OFFSET 0.000000 0.000000 0.000000
						}
					}
				}
			}
		}
	}
}
MOTION
Frames: 4
Frame Time: 0.016667
-10.954417 85.553665 3.788124 5.809044 -41.414538 12.752039 17.889338 -5.779061 2.719465 28.909028 -4.182647 -1.799672 0.000000 0.000000 0.000000 17.801730 -2.616834 -3.497812 3.925433 -0.806465 17.439377 7.730343 1.255950 -11.559171 -0.000000 0.000001 -0.000003 2.354322 -30.783106 2.356287 0.000000 0.000000 0.000000 -34.242843 -26.233505 -29.291427 -7.515771 -26.361388 1.290820 6.941797 -20.603913 5.351069 16.254363 -11.504911 21.549250 4.507351 18.475117 -9.635923 8.841685 13.664034 -1.275352 -0.000005 0.000001 0.000000 1.539053 -3.432142 14.456422 -0.180780 -1.247029 -29.044116 -0.000001 0.000002 -0.000001 1.659202 1.542435 -11.529120 0.180720 -1.715856 -25.398287 0.000002 0.000002 0.000001 -0.041052 5.351822 -28.839886 -0.820805 -0.913431 -27.616174 0.000000 -0.000003 -0.000003 0.111652 11.221140 -18.652977 -0.848717 -0.437676 -22.689945 0.000001 0.000000 0.000001 -0.512604 12.805414 24.404317 0.000000 0.000000 0.000000 -20.406264 -19.745809 20.483672 -21.211178 81.262872 19.903386 -23.264555 11.560928 8.425356 55.149536 18.649553 -29.698264 -0.442524 -14.180579 7.313155 21.666965 -29.244479 9.142355 0.000001 0.000001 0.000001 5.673399 7.585019 36.844158 1.050466 3.824514 68.900257 0.000001 -0.000001 -0.000000 -0.125711 1.886088 45.000766 -1.168988 3.204668 68.417663 -0.000003 -0.000002 0.000000 -5.311984 1.216650 58.508801 -0.745226 1.667588 48.011305 0.000001 -0.000001 -0.000001 -7.756802 -9.376478 47.264001 -0.526020 1.541614 45.600525 0.000001 -0.000000 -0.000002 -56.175280 30.329940 38.022485 39.288966 -27.030047 2.392760 4.876671 1.336392 -15.832197 -0.806936 -6.108591 0.920712 -0.000000 0.000001 -0.000000 -24.872243 -4.945490 -30.429825 52.525097 0.138552 -6.906692 -31.643939 -6.076490 23.892205 0.528356 2.970030 1.471335 -0.000000 -0.000001 -0.000000 
-10.504930 85.785591 3.868380 4.264755 -40.878361 11.269006 17.667452 -5.649439 2.647346 28.357200 -3.983564 -2.018766 0.000000 0.000000 0.000000 17.259821 -2.365350 -3.582333 3.399036 0.434951 18.470307 8.197279 1.394254 -12.300080 0.000001 0.000001 -0.000003 2.328584 -30.676869 2.585258 0.000000 0.000000 0.000000 -33.628809 -25.347568 -29.746502 -7.805139 -23.996575 1.221980 7.439370 -16.511994 6.913803 16.348015 -10.644464 20.290658 4.173214 18.061325 -9.539043 8.819971 13.691521 -1.261302 -0.000001 0.000000 -0.000001 -0.027719 -3.469729 16.408548 -0.157403 -1.203755 -27.954885 -0.000001 0.000003 -0.000001 1.407627 2.022317 -8.664055 0.274516 -1.534071 -22.087503 -0.000000 -0.000000 0.000001 0.329471 4.603398 -25.951958 -0.773376 -0.788256 -24.421528 -0.000002 0.000003 -0.000000 1.291770 9.409265 -14.825728 -0.832737 -0.348417 -20.341070 0.000000 -0.000001 0.000000 -0.608454 13.107893 25.085214 0.000000 0.000000 0.000000 -20.872665 -20.553214 19.261014 -11.667254 82.321347 10.693714 -23.900126 9.732271 8.487056 55.149536 18.649555 -29.698270 -0.442524 -14.180581 7.313149 21.666969 -29.244476 9.142359 0.000002 0.000001 0.000001 5.673401 7.585020 36.844158 1.050469 3.824520 68.900257 -0.000003 0.000000 0.000002 -0.125708 1.886093 45.000773 -1.168987 3.204666 68.417670 0.000002 -0.000001 -0.000001 -5.311978 1.216651 58.508801 -0.745228 1.667584 48.011302 -0.000000 -0.000001 0.000001 -7.756800 -9.376475 47.264001 -0.526023 1.541615 45.600525 -0.000002 -0.000000 -0.000002 -55.824495 30.443960 38.190777 39.337389 -27.233930 2.384212 5.113960 0.554846 -15.168301 -0.806936 -6.108590 0.920712 -0.000000 0.000001 -0.000000 -23.217683 -5.832538 -30.333007 51.515660 0.022786 -6.837408 -31.142674 -6.159766 24.106579 0.528356 2.970030 1.471336 0.000000 -0.000003 0.000000 
-10.088202 85.980629 3.974710 3.036976 -40.150044 9.971914 17.467577 -5.441227 2.722356 27.805755 -3.750693 -1.987558 0.000000 0.000000 0.000000 16.722216 -2.190757 -3.347006 2.348163 1.128147 18.345328 8.178893 1.108623 -12.085777 0.000002 -0.000001 0.000001 2.242998 -30.396213 2.625577 0.000000 0.000000 0.000000 -33.029203 -24.760062 -30.398129 -7.945688 -22.391728 0.965490 6.968094 -14.661020 7.619785 16.520312 -10.013506 19.194235 3.726965 17.497772 -9.405204 8.670549 13.479800 -1.218510 -0.000001 0.000001 0.000002 -1.121926 -3.629174 17.132788 -0.125505 -1.141310 -26.402306 -0.000001 0.000003 -0.000001 1.251167 2.428155 -6.762187 0.341902 -1.385036 -19.439914 0.000002 0.000002 -0.000002 0.442698 4.444534 -23.821683 -0.734561 -0.666209 -21.365052 0.000002 -0.000001 -0.000001 2.196508 8.467064 -11.623439 -0.821258 -0.265661 -18.176547 -0.000000 0.000001 -0.000001 -0.501987 12.543238 24.284791 0.000000 0.000000 0.000000 -20.300878 -21.057217 19.750049 -3.535016 83.023934 2.883874 -24.115019 8.786025 8.308338 55.149536 18.649558 -29.698257 -0.442527 -14.180581 7.313152 21.666965 -29.244479 9.142352 -0.000002 -0.000000 -0.000000 5.673399 7.585018 36.844165 1.050469 3.824513 68.900257 -0.000007 0.000001 0.000000 -0.125712 1.886090 45.000770 -1.168983 3.204668 68.417663 0.000002 -0.000003 0.000000 -5.311980 1.216650 58.508807 -0.745227 1.667582 48.011302 -0.000001 -0.000000 -0.000001 -7.756804 -9.376478 47.264004 -0.526023 1.541611 45.600525 -0.000001 0.000000 0.000000 -55.791089 30.466981 38.366358 39.478616 -27.463550 2.382009 5.352848 -0.272163 -14.480928 -0.806936 -6.108591 0.920712 0.000000 0.000002 -0.000000 -21.655688 -6.682477 -30.081195 50.511363 -0.197771 -6.775206 -30.675571 -6.399612 24.331244 0.528356 2.970031 1.471335 0.000000 -0.000003 0.000000 
-9.675404 86.170631 4.085851 1.956982 -39.306922 8.818206 17.238267 -5.238004 2.775934 27.212092 -3.554407 -1.949092 0.000000 0.000000 0.000000 16.129905 -2.065763 -3.134698 1.254584 1.689141 17.729141 7.834701 0.608336 -11.472232 -0.000000 0.000000 -0.000000 2.180234 -30.084695 2.687297 0.000000 0.000000 0.000000 -32.508941 -24.092779 -31.048165 -8.013988 -21.085969 0.699048 6.449172 -13.147106 7.884995 16.823174 -9.647921 18.086865 3.016006 16.587726 -9.197020 8.295754 12.860991 -1.130120 0.000002 0.000000 -0.000001 -1.666540 -3.856572 16.343908 -0.080184 -1.044504 -24.034987 -0.000001 -0.000001 -0.000003 1.220569 2.798712 -5.837804 0.392853 -1.258186 -17.228426 0.000000 0.000001 -0.000001 0.086345 5.042130 -22.266470 -0.697784 -0.522220 -17.818275 -0.000001 0.000000 0.000000 2.680543 8.471294 -8.438548 -0.812048 -0.171837 -15.734265 0.000001 -0.000000 0.000000 -0.531448 12.423650 23.593321 0.000000 0.000000 0.000000 -19.558405 -22.044733 20.084122 3.473281 83.560234 -3.939944 -24.470167 8.375677 8.315518 55.149539 18.649555 -29.698260 -0.442526 -14.180581 7.313149 21.666963 -29.244479 9.142356 -0.000001 -0.000001 0.000000 5.673402 7.585015 36.844165 1.050469 3.824510 68.900250 0.000001 -0.000000 -0.000000 -0.125709 1.886087 45.000770 -1.168987 3.204673 68.417663 0.000003 -0.000003 0.000001 -5.311981 1.216648 58.508794 -0.745227 1.667584 48.011302 -0.000001 -0.000000 0.000001 -7.756805 -9.376476 47.264007 -0.526020 1.541611 45.600525 -0.000001 0.000000 -0.000002 -55.824823 30.510499 38.460430 39.591041 -27.694071 2.377400 5.625015 -1.127903 -13.775888 -0.806936 -6.108587 0.920712 0.000000 0.000001 -0.000000 -20.122328 -7.510196 -29.799244 49.487333 -0.465314 -6.713401 -30.204060 -6.711441 24.563949 0.528356 2.970029 1.471336 -0.000000 -0.000001 0.000000 
